<?xml version="1.0"?>
<svg xmlns="http://www.w3.org/2000/svg" height="512px" viewBox="-54 0 452 452.00009" width="512px" class=""><g><path d="m294.402344 40h-34.402344l-5.699219-31.699219c-.84375-4.765625-4.960937-8.253906-9.800781-8.300781h-145c-4.851562.015625-8.988281 3.519531-9.800781 8.300781l-5.699219 31.699219h-34.300781c-13.207031-.027344-25.878907 5.210938-35.210938 14.558594-9.328125 9.351562-14.5429685 22.035156-14.488281 35.242187v312.398438c-.0585938 13.191406 5.140625 25.863281 14.449219 35.210937 9.308593 9.347656 21.960937 14.597656 35.152343 14.589844h244.699219c13.195313.023438 25.859375-5.21875 35.171875-14.570312 9.3125-9.351563 14.503906-22.03125 14.429688-35.230469v-312.398438c.097656-13.1875-5.074219-25.867187-14.371094-35.21875-9.296875-9.351562-21.945312-14.601562-35.128906-14.582031zm-186.5-20h128.296875l9 50h-146.296875zm216.097656 382.199219c.058594 7.886719-3.03125 15.472656-8.589844 21.066406-5.558594 5.597656-13.121094 8.742187-21.007812 8.734375h-244.800782c-7.886718.007812-15.449218-3.136719-21.007812-8.734375-5.558594-5.59375-8.652344-13.179687-8.59375-21.066406v-312.398438c-.058594-7.886719 3.035156-15.472656 8.59375-21.066406 5.558594-5.597656 13.121094-8.742187 21.007812-8.734375h30.699219l-3.300781 18.101562c-.496094 2.953126.304688 5.976563 2.199219 8.296876 1.886719 2.320312 4.710937 3.679687 7.703125 3.703124h170.097656c2.980469-.070312 5.785156-1.417968 7.699219-3.703124 1.890625-2.242188 2.699219-5.207032 2.203125-8.097657l-3.300782-18.300781h30.699219c7.890625-.023438 15.464844 3.113281 21.027344 8.714844 5.5625 5.597656 8.648437 13.191406 8.574219 21.085937v312.398438zm0 0" data-original="#000000" class="active-path" data-old_color="#000000" fill="#673AB7"/><path d="m130 231c-.015625-5.515625-4.484375-9.984375-10-10h-55c-5.515625.015625-9.984375 4.484375-10 10v55c.015625 5.515625 4.484375 9.984375 10 10h55c5.515625-.015625 9.984375-4.484375 10-10zm-21 44h-34v-34h34zm0 0" data-original="#000000" class="active-path" data-old_color="#000000" fill="#673AB7"/><path d="m279.300781 248h-118.699219c-5.523437 0-10 4.476562-10 10s4.476563 10 10 10h118.597657c5.523437.027344 10.023437-4.425781 10.050781-9.949219.027344-5.523437-4.425781-10.023437-9.949219-10.050781zm0 0" data-original="#000000" class="active-path" data-old_color="#000000" fill="#673AB7"/><path d="m130 135c-.015625-5.515625-4.484375-9.984375-10-10h-55c-5.515625.015625-9.984375 4.484375-10 10v55c.015625 5.515625 4.484375 9.984375 10 10h55c5.515625-.015625 9.984375-4.484375 10-10zm-21 44h-34v-34h34zm0 0" data-original="#000000" class="active-path" data-old_color="#000000" fill="#673AB7"/><path d="m279.300781 152h-118.699219c-5.523437 0-10 4.476562-10 10s4.476563 10 10 10h118.597657c5.523437.027344 10.023437-4.425781 10.050781-9.949219.027344-5.523437-4.425781-10.023437-9.949219-10.050781zm0 0" data-original="#000000" class="active-path" data-old_color="#000000" fill="#673AB7"/><path d="m130 327c-.015625-5.515625-4.484375-9.984375-10-10h-55c-5.515625.015625-9.984375 4.484375-10 10v55c.015625 5.515625 4.484375 9.984375 10 10h55c5.515625-.015625 9.984375-4.484375 10-10zm-21 44h-34v-34h34zm0 0" data-original="#000000" class="active-path" data-old_color="#000000" fill="#673AB7"/><path d="m279.300781 344h-118.699219c-5.523437 0-10 4.476562-10 10s4.476563 10 10 10h118.597657c5.523437.027344 10.023437-4.425781 10.050781-9.949219.027344-5.523437-4.425781-10.023437-9.949219-10.050781zm0 0" data-original="#000000" class="active-path" data-old_color="#000000" fill="#673AB7"/></g> </svg>
