<?xml version="1.0"?>
<svg xmlns="http://www.w3.org/2000/svg" xmlns:xlink="http://www.w3.org/1999/xlink" version="1.1" id="Capa_1" x="0px" y="0px" viewBox="0 0 208.213 208.213" style="enable-background:new 0 0 208.213 208.213;" xml:space="preserve" width="512px" height="512px" class=""><g><g>
	<g>
		<path d="M162.656,10.24h-117.1c-7.24,0-13.129,5.89-13.129,13.129v171.715c0,7.24,5.89,13.129,13.129,13.129h117.1    c7.24,0,13.129-5.89,13.129-13.131V23.369C175.786,16.13,169.896,10.24,162.656,10.24z M168.957,195.082    c0,3.475-2.828,6.303-6.303,6.303H45.555c-3.475,0-6.303-2.826-6.303-6.303V23.369c0-3.475,2.826-6.303,6.303-6.303h117.099    c3.475,0,6.303,2.826,6.303,6.303V195.082z" data-original="#000000" class="active-path" data-old_color="#673ab7" fill="#673ab7"/>
	</g>
</g><g>
	<g>
		<path d="M158.719,23.893h-27.194c-1.884,0-3.413,1.529-3.413,3.413s1.529,3.413,3.413,3.413h23.781v157.013h-102.4V30.72h23.472    c1.884,0,3.413-1.529,3.413-3.413s-1.529-3.413-3.413-3.413H49.492c-1.884,0-3.413,1.529-3.413,3.413v163.84    c0,1.884,1.529,3.413,3.413,3.413h109.227c1.884,0,3.413-1.529,3.413-3.413V27.307C162.133,25.423,160.603,23.893,158.719,23.893z    " data-original="#000000" class="active-path" data-old_color="#673ab7" fill="#673ab7"/>
	</g>
</g><g>
	<g>
		<path d="M121.673,10.24h-4.345C115.807,4.357,110.456,0,104.106,0c-6.35,0-11.701,4.357-13.222,10.24h-4.345    c-7.252,0-13.153,5.9-13.153,13.153v1c0,7.252,5.9,13.153,13.153,13.153h35.133c7.253,0,13.153-5.902,13.153-13.153v-1    C134.826,16.142,128.926,10.24,121.673,10.24z M127.999,24.393c0,3.488-2.838,6.327-6.327,6.327H86.539    c-3.488,0-6.327-2.838-6.327-6.327v-1c0-3.488,2.838-6.327,6.327-6.327h7.327c1.884,0,3.413-1.529,3.413-3.413    c0-3.765,3.062-6.827,6.827-6.827s6.827,3.062,6.827,6.827c0,1.884,1.529,3.413,3.413,3.413h7.327    c3.488,0,6.327,2.838,6.327,6.327V24.393z" data-original="#000000" class="active-path" data-old_color="#673ab7" fill="#673ab7"/>
	</g>
</g><g>
	<g>
		<path d="M138.239,61.44h-34.133c-1.884,0-3.413,1.529-3.413,3.413c0,1.884,1.529,3.413,3.413,3.413h34.133    c1.884,0,3.413-1.529,3.413-3.413C141.653,62.969,140.123,61.44,138.239,61.44z" data-original="#000000" class="active-path" data-old_color="#673ab7" fill="#673ab7"/>
	</g>
</g><g>
	<g>
		<path d="M84.971,48.061c-1.732-0.741-3.738,0.061-4.482,1.794l-8.624,20.122l-6.827-4.55c-1.567-1.046-3.688-0.62-4.733,0.947    c-1.044,1.568-0.621,3.686,0.947,4.733l10.24,6.827c0.567,0.379,1.225,0.573,1.893,0.573c0.326,0,0.654-0.046,0.973-0.143    c0.973-0.288,1.766-0.995,2.166-1.927l10.24-23.893C87.507,50.811,86.705,48.804,84.971,48.061z" data-original="#000000" class="active-path" data-old_color="#673ab7" fill="#673ab7"/>
	</g>
</g><g>
	<g>
		<path d="M138.239,105.813h-34.133c-1.884,0-3.413,1.529-3.413,3.413s1.529,3.413,3.413,3.413h34.133    c1.884,0,3.413-1.529,3.413-3.413S140.123,105.813,138.239,105.813z" data-original="#000000" class="active-path" data-old_color="#673ab7" fill="#673ab7"/>
	</g>
</g><g>
	<g>
		<path d="M84.971,92.435c-1.732-0.739-3.738,0.06-4.482,1.794l-8.624,20.122l-6.827-4.55c-1.567-1.044-3.688-0.62-4.733,0.947    c-1.044,1.568-0.621,3.686,0.947,4.733l10.24,6.827c0.567,0.379,1.225,0.573,1.893,0.573c0.326,0,0.654-0.046,0.973-0.143    c0.973-0.288,1.766-0.995,2.166-1.927l10.24-23.893C87.507,95.184,86.705,93.177,84.971,92.435z" data-original="#000000" class="active-path" data-old_color="#673ab7" fill="#673ab7"/>
	</g>
</g><g>
	<g>
		<path d="M138.239,150.187h-34.133c-1.884,0-3.413,1.529-3.413,3.413s1.529,3.413,3.413,3.413h34.133    c1.884,0,3.413-1.529,3.413-3.413S140.123,150.187,138.239,150.187z" data-original="#000000" class="active-path" data-old_color="#673ab7" fill="#673ab7"/>
	</g>
</g><g>
	<g>
		<path d="M84.971,136.808c-1.732-0.741-3.738,0.061-4.482,1.794l-8.624,20.122l-6.827-4.55c-1.567-1.045-3.688-0.62-4.733,0.947    c-1.044,1.568-0.621,3.686,0.947,4.733l10.24,6.827c0.567,0.379,1.225,0.573,1.893,0.573c0.326,0,0.654-0.046,0.973-0.143    c0.973-0.288,1.766-0.995,2.166-1.927l10.24-23.893C87.507,139.558,86.705,137.551,84.971,136.808z" data-original="#000000" class="active-path" data-old_color="#673ab7" fill="#673ab7"/>
	</g>
</g></g> </svg>
